<svg id="圖層_1" data-name="圖層 1" xmlns="http://www.w3.org/2000/svg" viewBox="0 0 51.11 48.08"><path d="M41.42,11.2V46.77H27.82V11.2h-9.7V0h33V11.2Z"/><path d="M9.08,8.59v2.47H1.3V.72H9.08V3.1H4.42V4.6H8.19V6.9H4.42V8.59Z"/><path d="M0,20.35l3-.53A1.74,1.74,0,0,0,4.9,21.07c.8,0,1.19-.21,1.19-.63a.58.58,0,0,0-.27-.52,2.8,2.8,0,0,0-1-.33c-1.81-.35-3-.8-3.49-1.36a2.81,2.81,0,0,1-.78-2,3.07,3.07,0,0,1,1.11-2.43,4.71,4.71,0,0,1,3.2-1A4,4,0,0,1,9,15.38l-2.63.8a1.61,1.61,0,0,0-1.66-1c-.69,0-1,.22-1,.65a.48.48,0,0,0,.23.44,2.88,2.88,0,0,0,.91.31,19.27,19.27,0,0,1,2.64.69,2.82,2.82,0,0,1,1.3,1A2.88,2.88,0,0,1,9.32,20a3.05,3.05,0,0,1-1.27,2.54,5.34,5.34,0,0,1-3.34,1Q.93,23.5,0,20.35Z"/><path d="M6.42,27.77v7.86h-3V27.77H1.27V25.29h7.3v2.48Z"/><path d="M4.93,48.08a4.72,4.72,0,0,1-3.56-1.45A5.4,5.4,0,0,1,0,42.76a5.65,5.65,0,0,1,1.31-3.83A4.59,4.59,0,0,1,5,37.42a4.65,4.65,0,0,1,3.52,1.42,5.27,5.27,0,0,1,1.36,3.81,5.59,5.59,0,0,1-1.37,3.94A4.61,4.61,0,0,1,4.93,48.08Zm0-2.35A1.2,1.2,0,0,0,6.07,45a6.31,6.31,0,0,0,.35-2.57c0-1.79-.48-2.69-1.44-2.69s-1.56,1-1.56,3.07S3.92,45.73,4.92,45.73Z"/></svg>