<svg id="圖層_1" data-name="圖層 1" xmlns="http://www.w3.org/2000/svg" viewBox="0 0 57.72 50.16"><defs><style>.cls-1{fill:#fff;}</style></defs><path class="cls-1" d="M39.12,2.25H33a1.78,1.78,0,0,0-1.2.26,2.12,2.12,0,0,0-.25,1.28V25l0,.84a3,3,0,0,0,2.83,3c.5.09.76.25.76.49s-.21.46-.61.46a7.8,7.8,0,0,1-1.06-.13,18.61,18.61,0,0,0-1.95-.06L30,29.6l-1.69,0c-.61,0-1.12,0-1.54.06-.83.09-1.31.13-1.45.13-.44,0-.65-.15-.65-.46s.23-.37.71-.42A3.48,3.48,0,0,0,27.64,28a4.07,4.07,0,0,0,.58-2.53V4l0-.56a1.49,1.49,0,0,0-.23-1,1.7,1.7,0,0,0-1-.21H21.19a3.78,3.78,0,0,0-2.54.7A5.07,5.07,0,0,0,17.43,5.6c-.13.56-.32.84-.58.82s-.39-.21-.39-.58a10,10,0,0,1,.26-1.66A12.65,12.65,0,0,0,17,1.62,2.52,2.52,0,0,1,17.27.31c.15-.21.47-.31,1-.31H41.52A2.41,2.41,0,0,1,43,.26a2.8,2.8,0,0,1,.24,1.53,11.49,11.49,0,0,0,.11,1.85c.07.49.12.84.13,1.05,0,.43-.13.67-.45.69s-.43-.21-.52-.67a3.19,3.19,0,0,0-.91-2A4.43,4.43,0,0,0,39.12,2.25Z"/><path class="cls-1" d="M7.26,12.9v8.72a2.25,2.25,0,0,0,.19,1.2q.18.21,1.11.21h3.33a19.79,19.79,0,0,0,3.59-.26A2.86,2.86,0,0,0,17,22.14a4.39,4.39,0,0,0,.63-1.81c.07-.36.26-.54.55-.52s.42.21.42.58c0,.1,0,.26,0,.47-.13,1.4-.19,2.67-.19,3.82a25.06,25.06,0,0,0,.13,2.61c0,.29,0,.5,0,.63q0,.54-.42.54a.51.51,0,0,1-.55-.48l-.13-.6a2.85,2.85,0,0,0-1-2,4.9,4.9,0,0,0-2.63-.52H9a3,3,0,0,0-1.41.22.92.92,0,0,0-.36.86l0,.72v8c0,1.22.22,2,.66,2.29a7.18,7.18,0,0,0,3.34.46q8.48,0,10.9-3.83a.77.77,0,0,1,.49-.39c.26,0,.4.17.4.56a5.71,5.71,0,0,1-1.58,3.34,6,6,0,0,1-4.8,2.33c-.42,0-1,0-1.69-.09q-4.12-.39-6.83-.39a37.78,37.78,0,0,0-5.34.26,7.63,7.63,0,0,1-1.12.15c-.47,0-.7-.15-.7-.46s.19-.41.57-.51l.82-.24c1-.29,1.55-1.3,1.55-3L4,33.7V15.41a8.66,8.66,0,0,0-.68-4.17A2.9,2.9,0,0,0,.63,10.17C.21,10.17,0,10,0,9.76s.32-.59,1-.59a13.44,13.44,0,0,1,1.45.11,68.26,68.26,0,0,0,7.44.35c1.76,0,3.31,0,4.67-.09l3.07-.15q1.27,0,1.56-.09A6.08,6.08,0,0,1,20,9.21c.48,0,.71.21.71.63a2.58,2.58,0,0,1-.06.49c0,.21-.1.78-.17,1.73l-.09,1.27a8.76,8.76,0,0,1-.22,1.56.51.51,0,0,1-.49.34c-.28,0-.41-.21-.41-.65V14A3.4,3.4,0,0,0,19,12.7a2.28,2.28,0,0,0-1.67-1.3,21,21,0,0,0-4.59-.33H9.38a3,3,0,0,0-1.73.34A2,2,0,0,0,7.26,12.9Z"/><path class="cls-1" d="M48.6,9.94a10.08,10.08,0,0,1,3.91.67l1.49.63a1.09,1.09,0,0,0,.39.08.81.81,0,0,0,.52-.21l.3-.26a.3.3,0,0,1,.24-.09c.36,0,.54.34.54,1.06,0,.24.1,1,.28,2.18l.35,2.23c.07.48.11.77.11.89,0,.44-.16.67-.47.67s-.46-.35-.7-1a7.28,7.28,0,0,0-3.16-3.87,9.7,9.7,0,0,0-5.31-1.52,5.66,5.66,0,0,0-3.89,1.38,4.39,4.39,0,0,0-1.56,3.43,5,5,0,0,0,1,3.14A5.72,5.72,0,0,0,44.58,21a53,53,0,0,0,5.15,1.89q8,2.61,8,8.57A8.36,8.36,0,0,1,54.78,38a11,11,0,0,1-7.54,2.58,15.82,15.82,0,0,1-3.67-.48A9.37,9.37,0,0,1,40.64,39a1.47,1.47,0,0,1-.52-.55A13.29,13.29,0,0,1,39.73,37c0-.11-.21-.77-.54-2a11.91,11.91,0,0,1-.56-2.77c0-.43.15-.64.44-.63s.5.37.71,1.06a8.38,8.38,0,0,0,3.27,4.51A9,9,0,0,0,48.49,39a7.49,7.49,0,0,0,5-1.76A5.38,5.38,0,0,0,55.58,33a5.15,5.15,0,0,0-1.9-4q-1-.84-5.61-2.4a18,18,0,0,1-6.79-3.59,6.85,6.85,0,0,1-2-5.1,7.14,7.14,0,0,1,2.6-5.7A10.05,10.05,0,0,1,48.6,9.94Z"/><path class="cls-1" d="M31.09,19.5a15.34,15.34,0,0,1,11.1,4.18,14.24,14.24,0,0,1,4.34,10.71,15.47,15.47,0,0,1-4.37,11.34A15,15,0,0,1,31,50.16q-7,0-11.29-4.24a14.84,14.84,0,0,1-4.32-11.1,16.16,16.16,0,0,1,1.14-5.91,13.56,13.56,0,0,1,8.21-8.19A17.37,17.37,0,0,1,31.09,19.5ZM29.7,20.91a10,10,0,0,0-8,3.38q-3,3.38-2.95,9.09a16.57,16.57,0,0,0,3.78,11,11.66,11.66,0,0,0,9.27,4.49,10.61,10.61,0,0,0,8.28-3.66A13.39,13.39,0,0,0,43.37,36a15.42,15.42,0,0,0-3.91-10.77A12.65,12.65,0,0,0,29.7,20.91Z"/></svg>